<?xml version="1.0" encoding="UTF-8"?>
<svg id="Layer_2" data-name="Layer 2" xmlns="http://www.w3.org/2000/svg" viewBox="0 0 572.48 71.04">
  <defs>
    <style>
      .cls-1 {
        fill: #d51a20;
      }
    </style>
  </defs>
  <g id="Layer_1-2" data-name="Layer 1">
    <g>
      <path d="m572.48,56.93c-.99.71-.77,1.9-1.13,2.85-1.22,3.22-2.52,6.23-6,7.95-2.97,1.48-6.05,1.82-9.2,1.9-4.91.12-9.82.02-14.74,0-1.47,0-1.91-.51-1.49-1.94.22-.75.24-1.47.24-2.21,0-20.78-.02-41.56-.04-62.34,0-2.08-.01-2.06,2.12-2.04,3.86.03,7.73-.09,11.59.07,3.23.14,6.53.23,9.55,1.53,4.44,1.91,7.18,5.36,8.48,9.92.11.4.24.69.63.85v43.45Zm-10.88-24.4h0c0-4.23.09-8.46-.05-12.68-.06-1.71-.1-3.52-1.27-5.02-1.8-2.29-6.12-3.8-8.88-3.07-.76.2-.77.82-.64,1.36.37,1.49.23,2.99.21,4.48-.15,13.52.3,27.05-.23,40.57-.04.94.3,1.38,1.33,1.32,1.14-.07,2.29,0,3.43-.02,2.49-.05,4.84-1.51,5.42-3.5.42-1.42.67-2.89.67-4.37.01-6.36,0-12.71,0-19.07Z"/>
      <path d="m447.69,71.04c-2.56-.9-5.28-1.25-7.5-3.17-2.76-2.38-4.35-5.32-5.33-8.67-.69-2.35-.63-4.78-.63-7.2.02-12.26-.06-24.53.04-36.79.04-5.41,4.03-12.44,10.35-14.3,4.55-1.34,9.07-1.28,13.58.66,3.89,1.67,6.17,4.76,7.67,8.28.76,1.79,1.29,3.96,1.29,6.07,0,12.69-.04,25.37.04,38.06.02,2.78-.9,5.31-1.74,7.83-1.19,3.58-3.77,6.1-7.22,7.75-.94.45-1.94.67-2.93.93-.37.09-.46.24-.45.56h-7.16Zm8.01-35.57c0-6.9,0-13.81,0-20.71,0-2.99-2.02-4.96-5.06-4.96-2.76,0-5.22,2.19-5.23,4.84-.03,14-.07,28,.06,41.99.01,1.64,1.02,3.3,2.7,4.16,1.58.81,2.98.84,4.66-.32,1.68-1.17,2.87-2.26,2.87-4.27,0-6.9,0-13.81,0-20.71Z"/>
      <path d="m159.48,71.04c-.31-.85-1.2-.91-1.84-1.03-3.77-.7-6.24-3-8.21-6.06-2.15-3.33-2.8-7.03-2.81-10.84-.06-16.6-.02-33.19-.02-49.79,0-1.84.58-2.3,2.4-2.2,2.47.14,4.95.24,7.42.19,1.23-.02,1.54.55,1.62,1.52.03.37,0,.75,0,1.13,0,17.02,0,34.03-.01,51.05,0,2.09,1.08,3.59,2.69,4.61,1.8,1.15,3.78.99,5.61-.16,1.91-1.2,2.25-3.22,2.28-5.14.24-16.26.14-32.52.05-48.77,0-.76-.2-1.53-.25-2.27-.1-1.6.27-2.41,1.99-2.19,2.33.29,4.66.19,7,.12,2.04-.06,2.39.26,2.39,2.25,0,5.41,0,10.81,0,16.22,0,11.75.19,23.51-.08,35.25-.14,6.18-2.54,11.5-8.53,14.55-1.02.52-2.13.73-3.23,1-.36.09-.47.24-.47.55h-8.01Z"/>
      <path d="m196.4,71.04c-.16-.99-1.13-1.05-1.72-1.06-1.72-.03-2.87-1.03-4.06-1.98-4.1-3.26-6.19-7.64-7.11-12.66-.52-2.85-.68-2.94,2.75-3.49,1.75-.28,3.51-.57,5.23-.98,1.65-.4,1.89-.13,2.38,1.35.78,2.35.95,5.01,2.99,6.81,3.38,2.99,6.5,1.75,8.91-1.06,1.72-2,1.86-4.24.92-6.58-1.29-3.2-3.28-5.9-5.79-8.33-5.39-5.21-11.09-10.2-14.56-17.01-2.28-4.48-2.49-9.14-1.38-13.95.59-2.56,2.4-4.3,3.92-6.28,3.01-3.91,7.27-5.23,11.9-5.55,5.9-.41,12.16,3.93,14.54,9.34.98,2.22.96,4.6,1.85,6.79.29.72-.4.9-.87.99-1.79.34-3.58.66-5.38.87-.99.11-1.95.28-2.92.53-1.1.28-1.87-.3-1.85-1.44.02-1.37-.19-2.66-.72-3.94-.99-2.4-2.72-3.11-5.35-3-1.95.08-3.65,1.76-4.36,3.82-1.21,3.51.04,6.54,1.95,9.31,2.63,3.82,6.11,6.91,9.47,10.12,3.23,3.09,6.57,6.21,8.37,10.47,1.22,2.88,2.33,5.78,2.07,8.98-.14,1.77.25,3.55-.22,5.31-1.56,5.86-5.1,9.92-10.97,11.94-.41.14-.99.07-1.13.67h-8.87Z"/>
      <path d="m321.76,71.04c-.1-1.1-1.15-1.02-1.74-1.04-2.05-.05-3.49-1.22-4.92-2.36-3.35-2.66-5.17-6.28-6.11-10.31-.34-1.46-.54-3.01-.42-4.57.05-.67.27-.91.92-.92,2.6-.03,5.13-.52,7.65-1.07,1.5-.33,2.37.44,2.29,2.35-.08,2.01.79,3.64,1.77,5.22.96,1.54,2.65,2.54,4.37,2.44,2.13-.13,4.18-1,5.38-3.02,1.97-3.3,1.04-6.4-.63-9.5-1.31-2.44-3.53-4.06-5.35-6.03-3.98-4.31-8.37-8.26-11.74-13.09-2.79-4-4.27-8.47-3.74-13.34.45-4.17,2.19-7.93,5.19-10.92,2.52-2.51,5.73-3.91,9.29-4.36,6.08-.76,10.96,1.28,14.59,6.23,1.64,2.24,2.41,4.76,2.93,7.4.05.23.02.47.09.69.76,2.33.6,2.56-1.83,2.87-2.42.31-4.86.56-7.26,1.05-1.15.24-1.26-.59-1.32-1.47-.15-1.94-.31-3.89-1.77-5.42-1.83-1.92-5.08-2.02-7.02-.23-1.22,1.13-1.74,2.4-1.87,4.14-.28,3.97,1.51,6.85,3.87,9.82,3.35,4.21,7.74,7.39,11.13,11.51,2.19,2.65,4.47,5.25,5.69,8.57,1.2,3.27,1.7,6.59,1.47,10.06-.42,6.33-3.43,10.97-9.15,13.86-.83.42-1.78.6-2.69.85-.34.09-.47.28-.5.58h-8.59Z"/>
      <path d="m358.97,71.04c-.5-.84-1.44-1.02-2.22-1.04-2.34-.05-4-1.44-5.48-2.83-3.39-3.19-5.26-7.21-5.73-11.83-.08-.83-.43-1.62-.33-2.49.06-.51.12-1.02.75-.97,2.96.21,5.76-1.08,8.72-.87.71.05,1.19-.05,1.27,1.05.13,1.8.06,3.67,1.22,5.32,1.9,2.68,5.07,4.15,7.61,2.71,4.08-2.32,5.15-5.95,3.09-10.34-1.34-2.86-3.49-5.12-5.69-7.31-3.94-3.92-8.03-7.73-11.42-12.12-3.22-4.18-5.27-8.95-4.66-14.4.25-2.21.92-4.32,1.96-6.36,1.74-3.4,4.18-6.04,7.7-7.63,5.97-2.68,11.64-2.07,16.86,1.8,3.21,2.38,4.64,5.85,5.47,9.59.22.99.64,1.93.61,2.98-.02.66-.19,1.03-.94,1.13-2.61.35-5.23.66-7.8,1.17-1.47.29-1.66-.12-1.91-1.51-.35-1.98-.47-4.16-2.33-5.65-2.21-1.77-5.92-1.28-7.48,1.08-1.8,2.73-1.28,5.56-.25,8.3.85,2.27,2.44,4.09,4.15,5.87,2.11,2.2,4.11,4.55,6.45,6.48,2.79,2.3,4.71,5.26,6.96,7.97,1.11,1.34,1.53,3.09,2.36,4.58,1.43,2.55,1.05,5.38,1.65,8.05.52,2.32-.15,4.68-.91,6.63-1.82,4.68-5,8.42-10.28,9.79-.53.14-1.25.04-1.41.83h-8.01Z"/>
      <path d="m395.82,45.91c.43-1.14.42-2.25.32-3.3-.29-3.3.55-6.47.92-9.69.3-2.61.77-5.21,1.11-7.82.42-3.25,1.02-6.5,1.32-9.74.32-3.52,1.34-6.94,1.28-10.5-.01-.78.1-1.59.31-2.34.24-.85.56-1.62,1.81-1.45,1.94.26,3.9.18,5.86.09,1.63-.07,2.15.42,2.3,1.98.51,5.38,1.55,10.7,2.14,16.06.38,3.45,1.39,6.82,1.35,10.35-.02,1.67.52,3.36.92,5.01.11.47.2.92.16,1.37-.25,2.97.77,5.8.9,8.72.02.44.35.63.74.9.59-1.32.57-2.72.6-4.06.05-1.86.13-3.72-.07-5.59-.08-.79.63-1.7.77-2.69.28-1.9.29-3.81.44-5.7.23-2.83,1.02-5.57,1.03-8.42,0-3.17.93-6.24,1.06-9.4.1-2.5.52-4.99.85-7.48.07-.53.39-.84,1.06-.88,2.81-.17,5.61-.05,8.41,0,.77.02.88.41.8.99-.27,2.01-.52,4.02-.84,6.02-.54,3.38-1.31,6.73-1.65,10.12-.36,3.64-1.4,7.17-1.55,10.84-.06,1.41-.74,2.79-.8,4.2-.15,3.44-1.54,6.67-1.5,10.15.02,1.49-.74,2.98-.81,4.48-.16,3.38-1.61,6.57-1.44,9.99.07,1.42-.75,2.66-.89,4.07-.21,2.15-.34,4.32-1.03,6.42-.26.8-.63,1.08-1.38,1.07-2.19-.02-4.39-.05-6.58-.06-.97,0-1.4-.49-1.56-1.41-.77-4.69-1.31-9.42-2.13-14.11-.54-3.12-1.05-6.29-1.34-9.47-.28-3.02-1.05-6.01-1.33-9.03-.19-2.04-.9-3.98-.92-6.02-.02-2.07,0-4.13-.21-6.23-.54.95-.84,1.96-.89,3.03-.04.89-.13,1.8,0,2.68.39,2.7-.64,5.23-.96,7.83-.25,1.96-.31,3.94-.69,5.91-.58,2.99-1.02,6.02-1.37,9.04-.34,3-1.05,5.93-1.3,8.94-.17,2.03-.56,4.02-1.02,6.01-.03.13-.1.26-.12.4q-.41,2.48-2.95,2.47c-1.48,0-2.96,0-4.44.01-1.69,0-2.11-.39-2.35-2.09-.29-2.11-.58-4.23-.92-6.33-.63-3.88-1.21-7.77-1.97-11.62-.76-3.86-1.18-7.76-1.87-11.63-.6-3.35-1.18-6.74-1.58-10.14-.23-1.91-.73-3.81-1.05-5.72-.32-1.85-.86-3.69-.89-5.58-.03-2.25-.68-4.38-.98-6.58-.34-2.54-.9-5.05-1.34-7.58-.17-.96.26-1.44,1.27-1.33,2.47.29,4.95.18,7.43.16,1.41-.01,2.14.6,2.14,2.03-.01,4.2.94,8.3,1.23,12.47.32,4.57,1.08,9.1,1.54,13.66.32,3.14.81,6.33,1.16,9.5.19,1.76.81,3.46.7,5.25-.05.72.35,1.19.78,1.78Z"/>
      <path class="cls-1" d="m71.16,47.5c.15-2.07.41-4.14.43-6.22.03-2.74.16-5.45.84-8.14.32-1.24.34-2.59.32-3.88-.03-1.64.3-3.22.56-4.82.33-2.06.63-4.13.63-6.24,0-1.6.32-3.21.57-4.81.26-1.7.62-3.38.53-5.11-.1-2.01.81-3.91.6-5.93-.06-.53.42-.65.87-.73,2.97-.51,5.97-.05,8.96-.24.64-.04.87.3.71.89-1.19,4.6-1.42,9.36-2.34,14-.7,3.53-1.19,7.08-1.78,10.62-.59,3.53-1.2,7.08-1.62,10.66-.41,3.52-1.16,7-1.74,10.5-.48,2.91-.92,5.82-1.37,8.74-.52,3.41-.95,6.84-1.57,10.24-.47,2.57-.57,2.55-3.3,2.57-1.72.01-3.44-.02-5.15.07-.98.05-1.36-.32-1.44-1.24-.43-4.93-1.16-9.81-1.97-14.69-.81-4.9-1.5-9.83-2.26-14.74-.76-4.9-1.26-9.84-1.57-14.79-.06-.92-.35-1.83-.29-2.79-.52.06-.42.43-.42.71-.02,3.32,0,6.65-.38,9.96-.23,2.01-.67,3.99-.98,6-.35,2.28-.67,4.57-1,6.85-.32,2.19-.73,4.37-.96,6.57-.33,3.11-1.11,6.16-1.35,9.29-.15,1.91-.58,3.81-.99,5.7-.12.57-.19,1.13-.11,1.66.18,1.18-.54,1.47-1.43,1.48-2.29.04-4.58-.04-6.87.01-.8.02-.97-.61-1.1-1-.26-.78-.33-1.64-.34-2.46,0-1.96-.74-3.73-1.26-5.56-.19-.65-.11-1.37-.19-2.06-.37-3.05-.74-6.1-1.35-9.12-.64-3.19-1.01-6.44-1.52-9.66-.44-2.77-1.07-5.53-1.31-8.31-.3-3.5-1.14-6.9-1.63-10.36-.43-3.04-.68-6.13-1.41-9.14-.74-3.04-.81-6.19-1.64-9.21-.17-.62-.11-1.13.87-1.13,2.66,0,5.33-.04,7.98-.21,1.21-.07,1.7.45,1.68,1.48-.05,3.17.74,6.25.93,9.39.16,2.62.83,5.2,1.04,7.81.16,2.03.41,4.05.64,6.08.37,3.21.86,6.41,1.08,9.63.12,1.76.32,3.52.4,5.29.1,2.23.6,4.44,1.27,6.65.1-.67.3-1.34.28-2.01-.08-3.83.52-7.61,1.05-11.36.56-3.98.95-7.98,1.54-11.96.49-3.29,1.12-6.56,1.28-9.9.12-2.52.69-5.01,1.06-7.52.02-.14.01-.28.03-.42.27-3.13.27-3.15,3.5-3.19,1.67-.02,3.34.08,5.01,0,.99-.05,1.46.42,1.5,1.22.12,2.46.56,4.88.88,7.31.42,3.14.98,6.29,1.29,9.42.32,3.31,1.24,6.53,1.32,9.88.04,1.77.57,3.53.81,5.3.32,2.33.48,4.69.89,7.01.35,1.98.12,4.05.84,5.98.13,0,.26,0,.39,0Z"/>
      <path d="m262.76,45.16c.35-.57.34-1,.18-1.37-.73-1.68-.72-3.44-.72-5.22.02-11.85,0-23.69,0-35.54,0-1.63.45-2.1,2.12-1.91,1.91.22,3.81.14,5.71.09,1.74-.05,2.47.59,2.47,2.28,0,21.48,0,42.96.02,64.45,0,1.16-.49,1.66-1.56,1.68-2.53.06-5.05.07-7.58.11-.73.01-1.14-.37-1.39-.99-.53-1.29-.87-2.68-1.38-3.93-.84-2.1-1.54-4.24-2.29-6.36-1.02-2.88-2.02-5.77-3.02-8.65-.97-2.78-1.95-5.56-2.88-8.35-.99-3-2.24-5.91-2.94-9.01-.26-1.14-.87-2.23-1.16-3.4-.09-.37-.31-.63-.71-.48-.36.14-.19.43-.11.7.8,2.49.94,5.07.94,7.66,0,10.15,0,20.31,0,30.46,0,2.08-.18,2.27-2.23,2.29-2.1.01-4.2-.01-6.29.03-1.26.03-1.79-.46-1.79-1.75.02-21.67.01-43.34.02-65.01,0-1.47.44-1.96,1.83-1.82,2.14.21,4.29.14,6.43.14.95,0,1.46.32,1.83,1.33,2.49,6.72,4.55,13.58,6.92,20.34,1.5,4.29,2.79,8.66,4.16,12.99.63,2,1.39,3.94,1.86,6.01.23,1.04.69,2.24,1.55,3.24Z"/>
      <path d="m116.97,1.12c4.74-.06,9.48-.03,14.05,1.38,5.34,1.65,9.27,5.8,10.13,11.71.16,1.1.43,2.17.64,3.25.27,1.41.07,2.74-.02,4.13-.2,3.23-1.36,6.1-2.92,8.87-.81,1.44-2,2.51-3.28,3.48-.84.64-.76,1.16.05,1.52,1.52.69,2.88,1.85,3.61,3.06,1.17,1.96,2.33,4.03,2.8,6.39.82,4.05.81,8.09.25,12.13-.93,6.71-5.34,11.28-12.24,12.29-1.62.24-3.28.65-4.89.52-4.71-.36-9.41-.2-14.12-.21-1.03,0-1.41-.36-1.38-1.42.56-20.34.12-40.69.23-61.04,0-1.6-.1-3.19-.15-4.79-.02-.91.34-1.34,1.37-1.3,1.95.08,3.91.02,5.86.02Zm14.46,49.26c-.03-1.44-.08-2.54-.24-3.66-.34-2.43-.81-4.74-3.22-6-2.25-1.18-4.73-.83-7.14-.67-.5.03-.64.54-.56.99.58,3.07.21,6.17.24,9.26.03,2.43.19,4.86-.22,7.29-.3,1.79.15,2.15,1.97,2.16.62,0,1.25.07,1.86,0,2.99-.36,5.63-.8,6.74-4.87.43-1.58.69-3.18.58-4.5Zm-.87-29.59c0-1.19.1-2.05-.02-2.88-.36-2.51-1.05-4.87-3.8-5.89-1.74-.65-3.62-.46-5.42-.74-.75-.12-1.18.45-1.06,1.26.09.59.26,1.19.26,1.78.02,4.23-.04,8.46.03,12.69.01.82-.9,1.71.1,2.47.84.64,1.84.29,2.76.37.19.02.38.02.57,0,2.15-.22,4.11-.89,5.25-2.81,1.19-2.02,1.52-4.27,1.31-6.25Z"/>
      <path class="cls-1" d="m.05,35.49c0-10.77,0-21.54,0-32.3,0-1.83,0-1.83,1.91-1.83,4.15.01,8.3-.08,12.45.08,5.64.22,10.79,1.74,14.27,6.53,1.64,2.26,2.67,4.78,2.95,7.67.32,3.23.3,6.41-.39,9.54-.76,3.43-2.54,6.34-5.43,8.5-1.22.91-1.2,1.13.03,1.98,3.86,2.65,5.89,6.4,6.58,10.9.55,3.62.6,7.29-.05,10.88-.94,5.15-3.49,9.16-8.87,10.96-2.34.78-4.68,1.21-7.14,1.19-4.87-.04-9.73-.02-14.6.02-1.24.01-1.74-.31-1.73-1.67.06-10.81.03-21.63.03-32.44h.01Zm10.67,14.76c0,2.67.04,5.35-.02,8.02-.02.93.3,1.29,1.21,1.27,1.19-.03,2.38.04,3.57-.02,2.82-.14,4.67-1.49,5.49-4.18.52-1.71.78-3.49.87-5.3.09-1.84-.44-3.58-.71-5.35-.3-1.99-1.62-3.59-3.52-4.31-1.89-.71-3.97-.68-6.01-.6-.86.03-1.04.48-.94,1.19.4,3.08.04,6.18.07,9.27Zm.09-29.85c.01,2.72.15,5.47-.29,8.15-.18,1.07.22,1.16.89,1.2,1.19.07,2.38.06,3.57.03,2.06-.05,3.96-1.63,4.87-3.49,1.18-2.42,1.26-4.95,1.09-7.48-.13-1.93-.49-3.88-1.96-5.46-1.96-2.11-4.6-1.73-7.04-2.1-1.01-.15-1.39.31-1.29,1.28.27,2.62.15,5.25.17,7.88Z"/>
      <path d="m483.18,55.36c0,4.14-.03,8.27.02,12.41.02,1.35-.42,1.91-1.86,1.89-2.51-.03-5.03-.03-7.54.22-1.35.14-2.06-.71-1.72-1.99.2-.75.2-1.48.2-2.22,0-20.21-.01-40.42-.02-60.63,0-.94,0-1.88-.01-2.82-.01-.84.41-1.18,1.24-1.15,5.57.23,11.15-.24,16.71.3,5.01.49,9.29,2.38,11.87,6.93,1.01,1.77,1.67,3.7,2,5.72.43,2.62.75,5.28.54,7.91-.28,3.53-.1,7.15-1.89,10.47-.93,1.73-1.98,3.33-3.52,4.5-1.09.83-1.29,1.68-.96,2.9,1.55,5.68,2.83,11.44,4.31,17.14.97,3.7,1.78,7.45,2.85,11.13.27.94.05,1.55-1.12,1.54-3.05-.02-6.1-.02-9.14.04-.69.01-.98-.3-1.05-.84-.48-3.27-1.5-6.42-2.19-9.64-1.17-5.46-2.66-10.86-3.56-16.38-.17-1.06-1.11-1.88-2.18-1.86q-2.97.06-2.97,3.14c0,3.76,0,7.52,0,11.28Zm0-34.43c0,1.93-.05,3.85.02,5.78.05,1.39-.66,3.24.32,4.04,1,.81,2.84.24,4.3.18,2.72-.1,4.58-1.85,5.16-4.34.75-3.23.66-6.46.21-9.69-.36-2.61-1.5-4.61-4.46-5.18-1.44-.28-2.91-.11-4.34-.47-1.03-.26-1.25.28-1.23,1.23.06,2.82.02,5.64.02,8.45Z"/>
      <path d="m278.25,35.2c0-10.72,0-21.44,0-32.16,0-1.73.17-1.95,1.87-1.95,8.3-.01,16.59.01,24.89,0,.78,0,1,.35,1,1.02.01,2.73.04,5.45.05,8.18,0,1.26-.93,1.3-1.79,1.2-4.42-.5-8.85-.13-13.27-.25-2.26-.06-2.21.16-2.04,2.44.23,3.09.13,6.2.13,9.3,0,1.4.06,2.8-.22,4.2-.29,1.49.07,1.81,1.65,1.81,3.15,0,6.3,0,9.44-.04.79-.01,1.11.1,1.26,1,.38,2.25.1,4.49.12,6.73.02,2.35-.1,2.34-2.64,2.32-2.44-.02-4.89-.03-7.33-.04-2.15,0-2.36.42-2.34,2.48.04,5.25.35,10.51-.17,15.76-.12,1.22.5,1.96,1.76,1.95,4.72-.02,9.44,0,14.16-.08.95-.02,1.26.23,1.25,1.16-.03,2.73,0,5.45.04,8.18.02.98-.39,1.28-1.35,1.28-8.25-.03-16.5-.03-24.75-.04-1.15,0-1.76-.36-1.75-1.72.06-10.91.03-21.81.03-32.72Z"/>
      <path d="m520.45,28.94c0,8.6,0,17.21,0,25.81,0,1.23-.02,2.46-.08,3.69-.05.95.29,1.34,1.31,1.32,4.43-.07,8.87-.07,13.3-.12,2.01-.02,2.01-.05,2.01,1.85,0,1.83,0,3.67,0,5.5,0,2.35-.51,2.79-2.97,2.95-1.63.1-3.2-.33-4.81-.32-5.96.03-11.92-.02-17.88.06-1.48.02-1.87-.46-1.84-1.86.08-4,.03-8,.03-12,0-17.4,0-34.8,0-52.2,0-2.21.48-2.59,2.68-2.46,2.28.13,4.57.19,6.85.17,1.17-.01,1.45.48,1.45,1.52-.03,8.7-.02,17.39-.02,26.09,0,0-.01,0-.02,0Z"/>
      <path d="m221.59,35.26c0-10.71,0-21.42,0-32.14,0-2.11-.01-2.07,2.13-2.02,2.52.06,5.05.13,7.57,0,1.22-.06,1.48.33,1.47,1.39-.03,4.37,0,8.74,0,13.11,0,17.29.01,34.58.01,51.87,0,1.88-.3,2.17-2.2,2.18-2.48,0-4.96-.04-7.43.03-1.23.04-1.54-.48-1.54-1.59.02-10.95.02-21.89.02-32.84,0,0-.02,0-.02,0Z"/>
    </g>
  </g>
</svg>